# xmcd CD database file
#
# Track frame offsets:
#	150
#	18348
#	42494
#	71163
#	93156
#	112731
#	129854
#	148889
#	163181
#	175070
#	188673
#	200847
#	215002
#	242528
#	278623
#	289051
#	300455
#
# Disc length: 4288 seconds
#
# Revision: 9
# Processed by: cddbd v1.5.2PL0 Copyright (c) Steve Scherf et al.
# Submitted via: CDex 1.85
#
DISCID=f310be11
DTITLE=Il Grande Blues 05 -  Il Popolo Del Blues
DYEAR=2004
DGENRE=Blues
TTITLE0=The trill is gone (B.B. King)
TTITLE1=Texas flood (Stevie Ray Vaughan)
TTITLE2=Caldonia (Muddy Waters, feat Pinetop Perkins, Paul Butterfly)
TTITLE3=You're gonna need somebody on your bond (Taj Mahal)
TTITLE4=Jump for joy (Koko Taylor)
TTITLE5=Fake I.D. (Albert Collins)
TTITLE6=Statesboro blues (Live) (The Allman Brothers Band)
TTITLE7=Burnin' up (Jay Hooks)
TTITLE8=Driving wheel (Little Junior Parker)
TTITLE9=C. C. Rider (John Jackson)
TTITLE10=High Compressor (James Cotton)
TTITLE11=Smokestack Lightning (Howlin' Wolf)
TTITLE12=I'm Gomma Take It All Back (Son Seals)
TTITLE13=Catfish (Taste)
TTITLE14=First Time I Met The Blues (Buddy Guy)
TTITLE15=Boom, Boom, Boom, Boom (John Lee Hooker)
TTITLE16=The Brother (For Jimmy and Stevie) - (Robben Ford and The Blue Line)
EXTD=YEAR: 2004
EXTT0=
EXTT1=
EXTT2=
EXTT3=
EXTT4=
EXTT5=
EXTT6=
EXTT7=
EXTT8=
EXTT9=
EXTT10=
EXTT11=
EXTT12=
EXTT13=
EXTT14=
EXTT15=
EXTT16=
PLAYORDER=
